<svg style="position: absolute; width: 0; height: 0;" width="0" height="0" version="1.1" xmlns="http://www.w3.org/2000/svg" xmlns:xlink="http://www.w3.org/1999/xlink">
	<defs>
        <symbol id="star" viewBox="0 0 41 40">
        <path d="M19.656 1.35056C19.836 0.422558 21.164 0.422559 21.344 1.35056L23.2011 10.9235C23.3247 11.5605 24.0823 11.8363 24.5864 11.4278L32.1625 5.28817C32.8969 4.693 33.9142 5.54658 33.4556 6.37319L28.7248 14.9003C28.41 15.4676 28.8132 16.1659 29.4619 16.177L39.212 16.3436C40.1571 16.3597 40.3877 17.6675 39.5051 18.0059L30.4 21.4972C29.7942 21.7295 29.6542 22.5235 30.144 22.949L37.5059 29.3438C38.2196 29.9637 37.5556 31.1137 36.6619 30.8056L27.4429 27.6275C26.8295 27.416 26.2118 27.9343 26.3136 28.5751L27.8426 38.2059C27.9908 39.1395 26.743 39.5937 26.2564 38.7833L21.2371 30.4228C20.9031 29.8665 20.0969 29.8665 19.7629 30.4228L14.7436 38.7833C14.257 39.5937 13.0092 39.1395 13.1574 38.2059L14.6864 28.5751C14.7882 27.9343 14.1705 27.416 13.5571 27.6275L4.3381 30.8056C3.44441 31.1137 2.78044 29.9637 3.4941 29.3438L10.856 22.949C11.3458 22.5235 11.2058 21.7295 10.6 21.4972L1.49492 18.0059C0.612283 17.6675 0.842878 16.3597 1.78804 16.3436L11.5381 16.177C12.1868 16.1659 12.59 15.4676 12.2752 14.9003L7.54444 6.37319C7.08584 5.54658 8.1031 4.693 8.83752 5.28817L16.4136 11.4278C16.9177 11.8363 17.6753 11.5605 17.7989 10.9235L19.656 1.35056Z"/>
        </symbol>
        <symbol id="email" viewBox="0 0 43 33">
        <path d="M2.09961 2H41.0996M2.09961 2V29.625C2.09961 30.056 2.27081 30.4693 2.57556 30.774C2.88031 31.0788 3.29363 31.25 3.72461 31.25H39.4746C39.9056 31.25 40.3189 31.0788 40.6237 30.774C40.9284 30.4693 41.0996 30.056 41.0996 29.625V2M2.09961 2L21.5996 19.875L41.0996 2" fill="#fff" stroke="#000        " stroke-width="3" stroke-linecap="round" stroke-linejoin="round"/>
        </symbol>
        <symbol id="pinterest" viewBox="0 0 23 23">
        <path d="M11.5565 0C5.32184 0 0.266602 5.05298 0.266602 11.2848C0.266602 15.9045 3.04875 19.8744 7.0254 21.6225C6.99516 20.8366 7.02036 19.8895 7.22196 19.0331C7.43869 18.1162 8.67352 12.8818 8.67352 12.8818C8.67352 12.8818 8.31063 12.1614 8.31063 11.0984C8.31063 9.42585 9.27833 8.17646 10.488 8.17646C11.5161 8.17646 12.0101 8.94725 12.0101 9.86918C12.0101 10.9019 11.3498 12.4435 11.0121 13.8743C10.7299 15.0733 11.6119 16.0456 12.7963 16.0456C14.9333 16.0456 16.3748 13.3 16.3748 10.0455C16.3748 7.57191 14.7065 5.72302 11.6774 5.72302C8.25519 5.72302 6.11818 8.27722 6.11818 11.1286C6.11818 12.111 6.4105 12.8063 6.86411 13.3403C7.07076 13.5871 7.101 13.6879 7.0254 13.97C6.96996 14.1766 6.84899 14.6753 6.79355 14.8768C6.71795 15.164 6.48611 15.2647 6.22906 15.1589C4.6515 14.5141 3.91565 12.7911 3.91565 10.8465C3.91565 7.64245 6.62219 3.79855 11.9849 3.79855C16.2942 3.79855 19.1318 6.91699 19.1318 10.2621C19.1318 14.6904 16.6671 17.9953 13.0383 17.9953C11.8186 17.9953 10.6744 17.3353 10.2813 16.5897C10.2813 16.5897 9.6261 19.1892 9.48498 19.693C9.24809 20.5646 8.77936 21.4311 8.35095 22.1112C9.39016 22.4176 10.4679 22.5737 11.5514 22.5747C17.786 22.5747 22.8413 17.5217 22.8413 11.2899C22.8413 5.05802 17.7911 0 11.5565 0Z" fill="#2E2E2E"/>
        </symbol>
        <symbol id="twiter" viewBox="0 0 24 21">
        <path d="M23.9997 3.23349C23.1066 3.62155 22.1616 3.87722 21.1946 3.99241C22.2108 3.39736 22.975 2.45203 23.3439 1.33371C22.3832 1.8955 21.3338 2.28969 20.2408 2.49937C19.7805 2.017 19.227 1.63326 18.6138 1.37148C18.0006 1.1097 17.3406 0.975339 16.6739 0.976571C13.9745 0.976571 11.79 3.12932 11.79 5.78306C11.7881 6.15218 11.8304 6.52021 11.916 6.87928C9.98034 6.78853 8.08494 6.29475 6.35106 5.42952C4.61718 4.56429 3.083 3.34666 1.84666 1.85454C1.41292 2.58574 1.18354 3.42001 1.18248 4.27018C1.18248 5.93683 2.05201 7.41002 3.36499 8.27311C2.58709 8.25465 1.82513 8.04876 1.14379 7.67292V7.73244C1.14379 10.0638 2.83028 12.0032 5.06239 12.4447C4.64265 12.5566 4.21011 12.6133 3.7757 12.6133C3.46746 12.6139 3.15992 12.584 2.85756 12.524C3.47809 14.4337 5.28412 15.8226 7.42348 15.8623C5.6851 17.202 3.55081 17.9261 1.35609 17.9208C0.96652 17.9202 0.577313 17.897 0.19043 17.8514C2.42313 19.2771 5.01847 20.0312 7.66752 20.024C16.6634 20.024 21.5781 12.6977 21.5781 6.34357C21.5781 6.13524 21.5726 5.92691 21.5627 5.72354C22.5166 5.045 23.3418 4.20179 23.9997 3.23349Z" fill="#2E2E2E"/>
        </symbol>
        <symbol id="fb" viewBox="0 0 24 23">
        <path fill-rule="evenodd" clip-rule="evenodd" d="M23.1653 11.6008C23.1653 5.69224 18.1902 0.901367 12.0543 0.901367C5.9185 0.901367 0.943359 5.69224 0.943359 11.6008C0.943359 16.941 5.00581 21.3674 10.3182 22.1708L10.3182 14.6946H7.49636V11.6008H10.3182V9.2436C10.3182 6.56253 11.9775 5.08037 14.5151 5.08037C15.7309 5.08037 17.0027 5.28958 17.0027 5.28958V7.92289H15.6009C14.2215 7.92289 13.7899 8.74732 13.7899 9.59468V11.6008H16.8712L16.3792 14.6946H13.7904L13.7904 22.1718C19.1029 21.3689 23.1653 16.9424 23.1653 11.6008Z" fill="#2E2E2E"/>
        </symbol>
        <symbol id="insta" viewBox="0 0 23 23">
        <path d="M15.7482 1.86267C16.975 1.8662 18.1505 2.33706 19.018 3.17241C19.8855 4.00777 20.3744 5.13974 20.3781 6.3211L20.3781 15.237C20.3744 16.4184 19.8855 17.5503 19.018 18.3857C18.1505 19.221 16.975 19.6919 15.7482 19.6954L6.48938 19.6954C5.26258 19.6919 4.08707 19.221 3.21959 18.3857C2.35211 17.5503 1.86314 16.4184 1.85948 15.237L1.85948 6.3211C1.86314 5.13974 2.35211 4.00777 3.21959 3.17241C4.08707 2.33706 5.26258 1.8662 6.48938 1.86267L15.7482 1.86267ZM15.7482 0.0795898L6.48938 0.0795898C2.92444 0.0795898 0.0078125 2.8882 0.0078125 6.3211L0.0078125 15.237C0.0078125 18.6699 2.92444 21.4785 6.48938 21.4785L15.7482 21.4785C19.3131 21.4785 22.2298 18.6699 22.2298 15.237L22.2298 6.3211C22.2298 2.8882 19.3131 0.0795898 15.7482 0.0795898Z" fill="#2E2E2E"/>
        <path d="M17.1372 6.32135C16.8626 6.32135 16.594 6.24291 16.3656 6.09595C16.1372 5.94899 15.9592 5.74011 15.8541 5.49573C15.749 5.25135 15.7215 4.98243 15.7751 4.723C15.8287 4.46356 15.9609 4.22525 16.1552 4.03821C16.3494 3.85117 16.5969 3.72379 16.8663 3.67218C17.1357 3.62058 17.415 3.64706 17.6687 3.74829C17.9225 3.84952 18.1394 4.02094 18.2921 4.24088C18.4447 4.46082 18.5261 4.7194 18.5261 4.98392C18.5265 5.15966 18.4909 5.33374 18.4212 5.49618C18.3515 5.65861 18.2492 5.8062 18.1202 5.93047C17.9912 6.05474 17.8379 6.15324 17.6692 6.22031C17.5005 6.28739 17.3197 6.32173 17.1372 6.32135ZM11.119 7.21265C11.8515 7.21265 12.5676 7.42183 13.1767 7.81374C13.7858 8.20565 14.2605 8.76268 14.5409 9.4144C14.8212 10.0661 14.8945 10.7833 14.7516 11.4751C14.6087 12.167 14.256 12.8025 13.738 13.3013C13.22 13.8001 12.56 14.1398 11.8415 14.2774C11.1231 14.415 10.3784 14.3444 9.70157 14.0745C9.02479 13.8045 8.44633 13.3474 8.03935 12.7608C7.63237 12.1743 7.41514 11.4847 7.41514 10.7793C7.41619 9.83368 7.80675 8.92707 8.50113 8.25842C9.1955 7.58976 10.137 7.21367 11.119 7.21265ZM11.119 5.42957C10.0202 5.42957 8.9461 5.74333 8.0325 6.33116C7.11891 6.919 6.40685 7.75451 5.98637 8.73205C5.56588 9.70958 5.45587 10.7852 5.67023 11.823C5.88459 12.8607 6.41369 13.814 7.19064 14.5621C7.96759 15.3103 8.95749 15.8198 10.0351 16.0262C11.1128 16.2327 12.2298 16.1267 13.245 15.7218C14.2601 15.3169 15.1277 14.6312 15.7382 13.7515C16.3486 12.8717 16.6745 11.8374 16.6745 10.7793C16.6745 9.36046 16.0891 7.99974 15.0473 6.99647C14.0054 5.9932 12.5924 5.42957 11.119 5.42957Z" fill="#2E2E2E"/>
        </symbol>
        <symbol id="triangle" viewBox="0 0 64 65">
       <path d="M0.656764 12.9852C-1.01016 5.46988 6.08362 -1.03173 13.4256 1.28235L56.3639 14.8159C63.7059 17.13 65.7895 26.5242 60.1145 31.7255L26.9249 62.1444C21.2499 67.3457 12.0725 64.4531 10.4055 56.9377L0.656764 12.9852Z" fill="#F7CCAC"/>
        </symbol>
        <symbol id="bigstar" viewBox="0 0 105 104">
       <path d="M52.5 0L55.5154 40.2661L76.898 6.01356L60.8553 43.0688L95.7066 22.6766L64.2812 48.032L104.617 46.1718L65.0081 54.0188L101.588 71.1168L62.8696 59.6576L87.3139 91.7968L58.3555 63.6567L65.0641 103.474L52.5 65.1L39.9359 103.474L46.6445 63.6567L17.6861 91.7968L42.1304 59.6576L3.41165 71.1168L39.9919 54.0188L0.382786 46.1718L40.7188 48.032L9.29335 22.6766L44.1447 43.0688L28.102 6.01356L49.4846 40.2661L52.5 0Z" fill="#9A90D7"/>
        </symbol>
        <symbol id="yellowarrow" viewBox="0 0 14 15">
        <path d="M0 1.7749H13M13 1.7749V14.7749M13 1.7749L1 13.7749" stroke="#FFF969" stroke-width="2"/>
        </symbol>
        <symbol id="setting" viewBox="0 0 73 72">
        <path d="M36.5892 7.85084L33.911 2L26.788 3.23249L26.2894 9.66417C24.1241 10.4857 22.0671 11.5655 20.1636 12.88L14.5365 9.57917L9.52185 14.6083L12.8982 20.275C10.6891 23.5261 9.18063 27.1967 8.46766 31.0558L2 32.6142V39.6975L8.52466 41.3409C8.93918 43.5452 9.62331 45.6909 10.5618 47.73L6.20256 52.7733L10.2911 58.5958L16.5594 56.2017C18.1733 57.753 19.9555 59.1214 21.8731 60.2817L21.1893 66.9542L27.8849 69.3908L31.6744 63.8517C33.2275 64.1161 34.7998 64.2535 36.3755 64.2625C37.0462 64.2772 37.7172 64.2489 38.3842 64.1775L41.6466 70L48.5559 68.1583L48.4704 61.5709C50.5378 60.5972 52.4797 59.3796 54.2543 57.9442L60.2091 60.7775L64.782 55.3517L60.9926 50.0675C62.1546 48.0728 63.0592 45.9405 63.6851 43.7208L70.0958 42.6583L70.7083 35.575L64.6111 33.4642C64.3705 31.1363 63.8394 28.8473 63.0298 26.65L67.6027 22.1875L64.027 16.0392L57.8727 17.725C56.3476 15.953 54.6056 14.3777 52.6872 13.0358L53.8554 6.80252L47.3877 3.79919L43.3276 8.70085C41.1245 8.14658 38.8617 7.86114 36.5892 7.85084ZM36.461 24.2417C38.8165 24.2417 41.1191 24.9363 43.0776 26.2376C45.0362 27.539 46.5627 29.3887 47.4641 31.5528C48.3655 33.7169 48.6013 36.0981 48.1418 38.3955C47.6823 40.6929 46.548 42.8032 44.8824 44.4595C43.2168 46.1159 41.0947 47.2438 38.7844 47.7008C36.4742 48.1577 34.0796 47.9232 31.9034 47.0268C29.7272 46.1304 27.8672 44.6125 26.5585 42.6648C25.2499 40.7172 24.5514 38.4274 24.5514 36.085C24.5514 34.5297 24.8594 32.9897 25.4579 31.5528C26.0564 30.1159 26.9337 28.8103 28.0396 27.7105C29.1455 26.6107 30.4585 25.7384 31.9034 25.1432C33.3483 24.548 34.897 24.2417 36.461 24.2417Z" fill="#F2ED72" stroke="#2E2E2E" stroke-width="3" stroke-miterlimit="10"/>
        <path d="M35.9997 54.4168C46.1709 54.4168 54.4163 46.1714 54.4163 36.0002C54.4163 25.8289 46.1709 17.5835 35.9997 17.5835C25.8285 17.5835 17.583 25.8289 17.583 36.0002C17.583 46.1714 25.8285 54.4168 35.9997 54.4168Z" stroke="#2E2E2E" stroke-width="3" stroke-miterlimit="10"/>
        </symbol>
        <symbol id="rooper" viewBox="0 0 92 92">
        <circle cx="46" cy="46" r="44" fill="white" stroke="#2E2E2E" stroke-width="4"/>
        <path d="M34.625 51.6262V58.9996C34.625 59.4306 34.7962 59.8439 35.1009 60.1487C35.4057 60.4534 35.819 60.6246 36.25 60.6246H42.75C43.181 60.6246 43.5943 60.4534 43.899 60.1487C44.2038 59.8439 44.375 59.4306 44.375 58.9996V34.2793M65.5 30.2976V58.4507C65.5003 58.7024 65.4421 58.9508 65.33 59.1761C65.2179 59.4015 65.055 59.5977 64.8541 59.7494C64.6532 59.9011 64.4198 60.004 64.1723 60.05C63.9249 60.0961 63.6701 60.084 63.4281 60.0148L27.6781 49.5945C27.3384 49.4973 27.0396 49.2921 26.827 49.0098C26.6144 48.7276 26.4996 48.3838 26.5 48.0304V40.7179C26.4996 40.3646 26.6144 40.0208 26.827 39.7385C27.0396 39.4563 27.3384 39.251 27.6781 39.1539L63.4281 28.7336C63.6701 28.6643 63.9249 28.6523 64.1723 28.6983C64.4198 28.7444 64.6532 28.8473 64.8541 28.999C65.055 29.1506 65.2179 29.3469 65.33 29.5722C65.4421 29.7976 65.5003 30.0459 65.5 30.2976Z" stroke="#2E2E2E" stroke-width="3" stroke-linecap="round" stroke-linejoin="round"/>
        </symbol>
        <symbol id="planet" viewBox="0 0 96 96">
        <circle cx="46" cy="50" r="44" fill="#2E2E2E" stroke="#2E2E2E" stroke-width="4"/>
        <circle cx="50" cy="46" r="44" fill="#FFF969" stroke="#2E2E2E" stroke-width="4"/>
        <path d="M62.4673 31.1159C68.6122 29.4448 73.2264 29.5987 74.6018 31.9295C77.0421 36.1293 68.0132 45.8483 54.4367 53.6103C40.8602 61.3723 27.8605 64.2748 25.3981 60.0749C24.0449 57.7441 26.2189 53.6982 30.7444 49.2565M69 46C69 56.4934 60.4934 65 50 65C39.5066 65 31 56.4934 31 46C31 35.5066 39.5066 27 50 27C60.4934 27 69 35.5066 69 46Z" stroke="#2E2E2E" stroke-width="3" stroke-linecap="round" stroke-linejoin="round"/>
        </symbol>
        <symbol id="case" viewBox="0 0 92 92">
        <circle cx="46" cy="46" r="44" fill="white" stroke="#2E2E2E" stroke-width="4"/>
        <path d="M27 43.5H67M55 34V31C55 30.2044 54.6629 29.4413 54.0627 28.8787C53.4626 28.3161 52.6487 28 51.8 28H42.2C41.3513 28 40.5374 28.3161 39.9373 28.8787C39.3371 29.4413 39 30.2044 39 31V34M28.6667 34H65.3333C66.2538 34 67 34.7462 67 35.6667V62.3333C67 63.2538 66.2538 64 65.3333 64H28.6667C27.7462 64 27 63.2538 27 62.3333V35.6667C27 34.7462 27.7462 34 28.6667 34Z" stroke="#2E2E2E" stroke-width="3" stroke-linecap="round" stroke-linejoin="round"/>
        </symbol>
        <symbol id="4star" viewBox="0 0 65 65">
        <path d="M24.2574 1.37559L30.1838 11.2067C34.8878 19.0257 43.2869 23.8667 52.4129 24.0407L63.8901 24.2576L54.059 30.184C46.24 34.888 41.3989 43.2871 41.225 52.4131L41.0081 63.8903L35.0817 54.0592C30.3777 46.2402 21.9786 41.3992 12.8526 41.2252L1.37538 41.0083L11.2065 35.0819C19.0254 30.3779 23.8665 21.9788 24.0405 12.8528L24.2574 1.37559Z" fill="#EFD552" stroke="black" stroke-width="2" stroke-miterlimit="10" stroke-linecap="round" stroke-linejoin="round"/>
        </symbol>
        <symbol id="heart" viewBox="0 0 66 61">
        <path d="M57.649 6.70897C50.389 1.81897 40.539 3.72897 35.649 10.989L32.449 15.729L27.709 12.529C20.449 7.63897 10.599 9.54897 5.70897 16.809C0.818969 24.069 2.72897 33.919 9.98897 38.809L14.729 42.009L41.009 59.729L58.729 33.449L61.929 28.709C66.819 21.459 64.909 11.609 57.649 6.70897Z" fill="black" stroke="black" stroke-width="2" stroke-miterlimit="10" stroke-linecap="round" stroke-linejoin="round"/>
        <path d="M55.649 3.70897C48.389 -1.18103 38.539 0.728969 33.649 7.98897L30.449 12.729L25.709 9.52897C18.449 4.63897 8.59897 6.54897 3.70897 13.809C-1.18103 21.069 0.728969 30.919 7.98897 35.809L12.729 39.009L39.009 56.729L56.729 30.449L59.929 25.709C64.819 18.459 62.909 8.60897 55.649 3.70897Z" fill="#F95C46" stroke="black" stroke-width="2" stroke-miterlimit="10" stroke-linecap="round" stroke-linejoin="round"/>
        </symbol>
        <symbol id="7star" viewBox="0 0 207 79">
        <path d="M97.2667 4.99945L109.061 9.46538L123.147 1.35589L129.944 7.44235L147.799 0.104141L149.171 7.4287L169.674 1.32286L165.536 9.42529L187.397 4.93547L178.008 13.3067L199.855 10.715L185.806 18.8289L206.265 18.2982L188.438 25.6451L206.224 27.2087L185.739 33.327L199.735 36.8866L177.879 41.3917L187.205 46.7238L165.352 49.3327L169.422 56.1022L148.945 56.651L147.503 64.4325L129.689 62.8867L122.826 71.1912L108.793 67.6479L96.9404 75.9538L87.5712 70.6357L71.4734 78.4209L67.3565 71.6621L48.0249 78.4375L49.419 70.6627L28.0685 76.0027L34.886 67.7004L12.8579 71.2693L24.6705 62.9612L3.34905 64.5348L19.4144 56.7429L0.139297 56.2224L19.448 49.4363L3.43036 46.8543L24.7692 41.5004L13.0154 37.0192L35.0436 33.4339L28.2923 27.3351L49.6256 25.7437L48.301 18.4104L67.5991 18.9129L71.7843 10.8059L87.8346 13.3707L97.2667 4.99945Z" fill="#F1B31C"/>
        </symbol>
        <symbol id="agency" viewBox="0 0 230 117">
        <path d="M103.267 28.9995L115.061 33.4654L129.147 25.3559L135.944 31.4424L153.799 24.1041L155.171 31.4287L175.674 25.3229L171.536 33.4253L193.397 28.9355L184.008 37.3067L205.855 34.715L191.806 42.8289L212.265 42.2982L194.438 49.6451L212.224 51.2087L191.739 57.327L205.735 60.8866L183.879 65.3917L193.205 70.7238L171.352 73.3327L175.422 80.1022L154.945 80.651L153.503 88.4325L135.689 86.8867L128.826 95.1912L114.793 91.6479L102.94 99.9538L93.5712 94.6357L77.4734 102.421L73.3565 95.6621L54.0249 102.438L55.419 94.6627L34.0685 100.003L40.886 91.7004L18.8579 95.2693L30.6705 86.9612L9.34905 88.5348L25.4144 80.7429L6.1393 80.2224L25.448 73.4363L9.43036 70.8543L30.7692 65.5004L19.0154 61.0192L41.0436 57.4339L34.2923 51.3351L55.6256 49.7437L54.301 42.4104L73.5991 42.9129L77.7843 34.8059L93.8346 37.3707L103.267 28.9995Z" fill="#2E2E2E"/>
        <path d="M113.267 18.9995L125.061 23.4654L139.147 15.3559L145.944 21.4424L163.799 14.1041L165.171 21.4287L185.674 15.3229L181.536 23.4253L203.397 18.9355L194.008 27.3067L215.855 24.715L201.806 32.8289L222.265 32.2982L204.438 39.6451L222.224 41.2087L201.739 47.327L215.735 50.8866L193.879 55.3917L203.205 60.7238L181.352 63.3327L185.422 70.1022L164.945 70.651L163.503 78.4325L145.689 76.8867L138.826 85.1912L124.793 81.6479L112.94 89.9538L103.571 84.6357L87.4734 92.4209L83.3565 85.6621L64.0249 92.4375L65.419 84.6627L44.0685 90.0027L50.886 81.7004L28.8579 85.2693L40.6705 76.9612L19.3491 78.5348L35.4144 70.7429L16.1393 70.2224L35.448 63.4363L19.4304 60.8543L40.7692 55.5004L29.0154 51.0192L51.0436 47.4339L44.2923 41.3351L65.6256 39.7437L64.301 32.4104L83.5991 32.9129L87.7843 24.8059L103.835 27.3707L113.267 18.9995Z" fill="#F1B31C"/>
        <path d="M78.6423 65.1087L71.3107 66.5933L70.5799 69.3319L66.6174 70.1343L70.8361 55.5897L74.7987 54.7873L84.3435 66.5448L80.381 67.3472L78.6423 65.1087ZM72.0642 63.7704L76.8691 62.7974L73.4955 58.4389L72.0642 63.7704ZM92.0454 50.9461C93.3344 50.6851 94.5534 50.5545 95.7025 50.5543C96.8567 50.5464 97.9313 50.6211 98.9263 50.7783L99.5776 53.9943C99.1725 53.8638 98.7209 53.7493 98.2227 53.6509C97.7309 53.5512 97.2021 53.4823 96.6364 53.444C96.0707 53.4058 95.4725 53.4041 94.8419 53.4388C94.2112 53.4735 93.5577 53.5593 92.8813 53.6963C92.039 53.8668 91.3175 54.076 90.7167 54.3239C90.1159 54.5718 89.6129 54.843 89.2076 55.1377C88.8023 55.4323 88.4838 55.7459 88.2522 56.0784C88.0194 56.4045 87.851 56.7376 87.7471 57.0774C87.6432 57.4173 87.5917 57.7532 87.5925 58.0852C87.5933 58.4172 87.624 58.7331 87.6848 59.033C87.7377 59.2946 87.8208 59.5734 87.9338 59.8694C88.0533 60.164 88.2174 60.4496 88.4262 60.7262C88.6413 61.0015 88.9113 61.2523 89.2362 61.4788C89.561 61.7053 89.9592 61.8838 90.4307 62.0141C90.9085 62.1432 91.4641 62.2134 92.0974 62.2246C92.7294 62.2295 93.4634 62.1473 94.2993 61.978C94.7204 61.8928 95.0847 61.8057 95.3922 61.7169C95.6997 61.628 95.9766 61.5354 96.2228 61.4391C96.4753 61.3414 96.7068 61.2381 96.9172 61.1291C97.134 61.0187 97.3566 60.9039 97.5848 60.7846L97.2631 59.1958L93.2814 60.0021L92.698 57.1211L100.231 55.5958L101.591 62.3149C101.151 62.57 100.651 62.824 100.092 63.0769C99.5367 63.3221 98.9557 63.5527 98.3485 63.7686C97.7489 63.9897 97.1416 64.189 96.5266 64.3667C95.9116 64.5444 95.3266 64.6894 94.7714 64.8018C93.91 64.9763 93.0721 65.0862 92.2576 65.1315C91.4431 65.1769 90.6674 65.1513 89.9304 65.0548C89.1986 64.9505 88.5112 64.7709 87.8684 64.5158C87.2319 64.2594 86.661 63.9167 86.1556 63.4876C85.6566 63.0572 85.2289 62.5361 84.8725 61.924C84.5212 61.3044 84.2622 60.583 84.0955 59.7598C83.9301 58.9431 83.8951 58.1796 83.9904 57.4695C84.0857 56.7594 84.2859 56.1077 84.5909 55.5145C84.9023 54.9201 85.3077 54.3797 85.807 53.8933C86.3127 53.4056 86.8863 52.9739 87.5276 52.5983C88.174 52.215 88.878 51.8864 89.6396 51.6127C90.4076 51.3376 91.2095 51.1154 92.0454 50.9461ZM105.563 62.2479L102.9 49.0968L116.214 46.4008L116.782 49.2052L107.115 51.1628L107.555 53.3355L116.724 51.4787L117.292 54.2831L108.123 56.1399L108.642 58.705L118.443 56.7203L119.011 59.5248L105.563 62.2479ZM134.871 56.3132L124.168 49.0745L125.998 58.1099L122.447 58.8289L119.784 45.6779L123.641 44.8968L134.361 52.1719L132.524 43.0982L136.055 42.383L138.718 55.5341L134.871 56.3132ZM157.143 50.8666C156.722 51.151 156.295 51.417 155.86 51.6645C155.425 51.9119 154.97 52.1403 154.494 52.3495C154.02 52.5652 153.511 52.7579 152.967 52.9278C152.43 53.0963 151.845 53.2445 151.214 53.3725C149.874 53.6438 148.61 53.7503 147.422 53.6918C146.241 53.6321 145.184 53.3978 144.251 52.9889C143.323 52.5723 142.545 51.9792 141.918 51.2095C141.289 50.4335 140.858 49.468 140.624 48.313C140.39 47.1581 140.412 46.104 140.691 45.1509C140.968 44.1913 141.454 43.3423 142.148 42.604C142.847 41.8579 143.729 41.2276 144.794 40.7131C145.866 40.1972 147.071 39.8036 148.411 39.5323C149.043 39.4044 149.639 39.3136 150.199 39.2599C150.766 39.2049 151.31 39.1844 151.831 39.1985C152.351 39.2062 152.859 39.2394 153.356 39.2983C153.852 39.3571 154.35 39.4357 154.848 39.5341L155.496 42.7309C155.092 42.6067 154.669 42.4897 154.229 42.3796C153.787 42.2632 153.308 42.1776 152.792 42.1226C152.274 42.0613 151.716 42.0416 151.116 42.0634C150.514 42.0789 149.85 42.1603 149.123 42.3076C148.006 42.5337 147.101 42.8366 146.407 43.2162C145.72 43.5945 145.195 44.0197 144.832 44.4917C144.469 44.9637 144.249 45.4666 144.171 46.0005C144.092 46.528 144.106 47.0566 144.213 47.5862C144.284 47.9372 144.393 48.2772 144.539 48.6062C144.684 48.9289 144.877 49.2253 145.118 49.4954C145.357 49.7591 145.646 49.9895 145.985 50.1866C146.324 50.3837 146.726 50.5315 147.191 50.63C147.656 50.7284 148.183 50.7744 148.773 50.7679C149.368 50.7537 150.039 50.671 150.786 50.5198C151.513 50.3725 152.158 50.1954 152.721 49.9885C153.282 49.7752 153.789 49.5429 154.243 49.2916C154.697 49.0402 155.106 48.7781 155.469 48.5053C155.831 48.2261 156.173 47.9476 156.496 47.6697L157.143 50.8666ZM167.609 44.0942L168.696 49.4637L165.155 50.1809L164.067 44.8113L156.117 38.3206L160.099 37.5143L165.344 41.9623L168.426 35.8281L172.407 35.0219L167.609 44.0942Z" fill="#2E2E2E"/>
        </symbol>
        <symbol id="disc" viewBox="0 0 112 112">
        <path d="M93.7501 17.9457C72.9452 -3.12812 39.0196 -3.33943 17.9457 17.4655C-3.12812 38.2512 -3.33943 72.196 17.4655 93.2506C38.2704 114.305 72.196 114.536 93.2506 93.7309C114.324 72.9452 114.536 39.0196 93.7501 17.9457ZM70.8513 60.4392C68.181 68.8534 59.1905 73.5215 50.7764 70.8513C42.343 68.181 37.6941 59.1905 40.3643 50.7764C43.0346 42.3622 52.025 37.6941 60.4584 40.3643C68.8534 43.0346 73.5215 52.025 70.8513 60.4392Z" fill="#E8E8E8" stroke="#2E2E2E" stroke-width="4" stroke-miterlimit="10"/>
        <path d="M61.0618 38.4576L61.0643 38.4584C70.5103 41.4629 75.7618 51.5765 72.7572 61.0442C69.7536 70.5089 59.6408 75.762 50.1723 72.7579L61.0618 38.4576ZM61.0618 38.4576C51.5762 35.4542 41.462 40.7045 38.4577 50.1714C35.4536 59.6374 40.6839 69.7533 50.1717 72.7578L61.0618 38.4576ZM23.5379 87.2547L23.5371 87.254C6.04402 69.5402 6.22866 41.0117 23.9413 23.5382C41.6553 6.06328 70.1849 6.24794 87.6586 23.9423C105.152 41.6562 104.967 70.1847 87.2544 87.6581L87.2537 87.6589C69.5399 105.152 41.0114 104.967 23.5379 87.2547ZM50.2609 60.861L50.2573 60.8573C47.3485 57.9182 47.3758 53.1539 50.3175 50.2404C53.2783 47.3269 58.0238 47.3594 60.935 50.2971C63.8542 53.2813 63.8147 58.0306 60.8762 60.9387C57.9371 63.8475 53.1741 63.8197 50.2609 60.861Z" fill="#E8E8E8" stroke="#2E2E2E" stroke-width="4"/>
        <path d="M22.537 22.1144C17.1773 27.3972 13.412 33.6598 11.126 40.3259L37.8093 49.4892C38.7122 46.819 40.2298 44.3216 42.3621 42.2085C44.5137 40.0953 47.0303 38.6161 49.7005 37.7325L40.9021 10.9339C34.2169 13.1431 27.8967 16.8315 22.537 22.1144Z" fill="#F9385B"/>
        <path d="M88.6593 89.082C94.019 83.7991 97.7843 77.5365 100.07 70.8705L73.387 61.7071C72.4841 64.3773 70.9665 66.8747 68.8149 68.9878C66.6826 71.101 64.1468 72.5802 61.4766 73.4639L70.2942 100.262C76.9794 98.0532 83.2996 94.3648 88.6593 89.082Z" fill="#F9385B"/>
        <path d="M61.2843 37.6556C61.8798 37.8477 62.4561 38.059 63.0324 38.3088L74.1745 12.3747C72.7721 11.7599 71.3121 11.222 69.8137 10.7418C68.3345 10.2807 66.8169 9.87731 65.3185 9.56995L59.4785 37.1946C60.0932 37.3098 60.6888 37.4635 61.2843 37.6556Z" fill="#F9385B"/>
        </symbol>
        <symbol id="twosq" viewBox="0 0 102 62">
        <path d="M21.7417 4.42755H49.3277L39.7144 57.0916H5.44095L21.7417 4.42755ZM68.7632 4.42755H96.4536L86.7359 57.0916H52.5669L68.7632 4.42755Z" fill="white"/>
        <path fill-rule="evenodd" clip-rule="evenodd" d="M18.7926 0.427551H54.1239L43.0503 61.0916H0.015625L18.7926 0.427551ZM65.8085 0.427551H101.259L90.0653 61.0916H47.1519L65.8085 0.427551ZM21.7417 4.42755H49.3277L39.7144 57.0916H5.44095L21.7417 4.42755ZM68.7632 4.42755H96.4536L86.7359 57.0916H52.5669L68.7632 4.42755Z" fill="#2E2E2E"/>
        </symbol>
        <symbol id="book" viewBox="0 0 131 121">
        <path d="M90.2691 5.02L5.60296 53.902C4.16808 54.7305 3.67646 56.5652 4.50488 58.0001L34.602 110.13C35.4305 111.565 37.2652 112.056 38.7001 111.228L72.2103 91.8809C72.8993 91.4831 73.7182 91.3753 74.4867 91.5812L85.0228 94.4043C85.2896 94.4758 85.5637 94.3175 85.6352 94.0508L88.4583 83.5147C88.6643 82.7461 89.1671 82.0909 89.8561 81.6931L123.366 62.346C124.801 61.5175 125.293 59.6828 124.464 58.2479L94.3672 6.11808C93.5388 4.6832 91.704 4.19157 90.2691 5.02Z" fill="#4B91FF" stroke="#2E2E2E" stroke-width="3" stroke-linecap="round"/>
        <path d="M112.565 54.5434L84.0147 5.0929C83.3244 3.89717 81.7954 3.48748 80.5997 4.17784L54.586 19.1968C53.7822 19.6609 53.1956 20.4254 52.9553 21.322L49.8746 32.8193L38.3773 29.7386C37.4807 29.4984 36.5253 29.6242 35.7214 30.0883L9.70782 45.1073C8.51209 45.7976 8.1024 47.3266 8.79276 48.5223L37.343 97.9728C38.0334 99.1686 39.5624 99.5782 40.7581 98.8879L68.7907 82.7033C69.1576 82.4914 69.5971 82.4446 70.0004 82.5745L78.4617 85.2992C79.5878 85.6618 80.7809 84.973 81.0299 83.8164L82.9009 75.1264C82.9901 74.7122 83.2504 74.355 83.6173 74.1431L111.65 57.9585C112.846 57.2681 113.255 55.7391 112.565 54.5434Z" fill="white" stroke="#2E2E2E" stroke-width="3" stroke-linecap="round"/>
        <mask id="mask0_1_6115" style="mask-type:alpha" maskUnits="userSpaceOnUse" x="9" y="5" width="103" height="93">
        <path d="M111.266 55.2934L82.7157 5.8429C82.4395 5.36461 81.8279 5.20073 81.3497 5.47688L55.336 20.4958C54.8767 20.7611 54.5415 21.1979 54.4042 21.7103L51.0647 34.1735C50.9932 34.4402 50.719 34.5985 50.4523 34.527L37.9891 31.1875C37.4767 31.0502 36.9308 31.1221 36.4714 31.3873L10.4578 46.4063C9.97953 46.6824 9.81565 47.294 10.0918 47.7723L38.6421 97.2228C38.9182 97.7011 39.5298 97.865 40.0081 97.5888L68.0407 81.4042C68.7746 80.9805 69.6535 80.8869 70.4602 81.1467L78.9215 83.8714C79.203 83.962 79.5013 83.7898 79.5635 83.5007L81.4345 74.8107C81.6129 73.9822 82.1334 73.2678 82.8673 72.844L110.9 56.6594C111.378 56.3833 111.542 55.7717 111.266 55.2934Z" fill="white"/>
        </mask>
        <g mask="url(#mask0_1_6115)">
        <path d="M53.9812 20.5266L81.8893 4.41377L112.206 56.9234L83.3828 73.5643L79.4131 85.0172L49.6053 33.3869L53.9812 20.5266Z" fill="#E5E2D7"/>
        </g>
        <rect x="20.8721" y="52.4546" width="29.6267" height="6.70871" transform="rotate(-30 20.8721 52.4546)" fill="#ECECEC"/>
        <rect x="27.1074" y="63.2541" width="29.6267" height="6.70871" transform="rotate(-30 27.1074 63.2541)" fill="#ECECEC"/>
        <rect x="33.3428" y="74.0549" width="29.6267" height="6.70871" transform="rotate(-30 33.3428 74.0549)" fill="#ECECEC"/>
        <rect x="39.5791" y="84.8556" width="29.6267" height="6.70871" transform="rotate(-30 39.5791 84.8556)" fill="#ECECEC"/>
        <rect x="55.3916" y="32.5243" width="29.6267" height="6.70871" transform="rotate(-30 55.3916 32.5243)" fill="#CAC8BE"/>
        <rect x="61.626" y="43.3247" width="29.6267" height="6.70871" transform="rotate(-30 61.626 43.3247)" fill="#CAC8BE"/>
        <rect x="67.8613" y="54.1254" width="29.6267" height="6.70871" transform="rotate(-30 67.8613 54.1254)" fill="#CAC8BE"/>
        <rect x="74.0977" y="64.9261" width="29.6267" height="6.70871" transform="rotate(-30 74.0977 64.9261)" fill="#CAC8BE"/>
        </symbol>
        <symbol id="chat" viewBox="0 0 93 93">
        <g clip-path="url(#clip0_1_6132)">
        <path d="M31.0794 54.483C38.8012 52.414 43.3813 44.4675 41.3091 36.7342C39.237 29.0008 31.2973 24.409 23.5755 26.4781C15.8536 28.5472 11.2736 36.4936 13.3457 44.2269C15.4178 51.9603 23.3575 56.5521 31.0794 54.483Z" fill="#FCEA2B" stroke="#FCEA2B" stroke-width="2" stroke-miterlimit="10"/>
        <path d="M29.4753 54.9871C27.4575 60.2389 23.6332 63.1661 17.5542 64.795C19.9459 62.0735 21.8392 57.4923 22.1688 54.2012L29.4753 54.9871Z" fill="#FCEA2B"/>
        <path d="M67.6376 61.2351C75.3595 59.1661 79.942 51.2289 77.8729 43.507C75.8038 35.7851 67.8667 31.2026 60.1448 33.2717C52.4229 35.3408 47.8404 43.2779 49.9095 50.9998C51.9785 58.7217 59.9157 63.3042 67.6376 61.2351Z" fill="#FCEA2B" stroke="#FCEA2B" stroke-width="2" stroke-miterlimit="10"/>
        <path d="M69.2904 60.9113C73.6637 64.4506 78.4393 65.0735 84.5183 63.4446C81.0863 62.2836 77.156 59.2628 75.225 56.5774L69.2904 60.9113Z" fill="#FCEA2B"/>
        <path d="M20.7724 44.3862C21.8915 44.0863 22.5556 42.936 22.2558 41.8169C21.9559 40.6978 20.8056 40.0336 19.6865 40.3335C18.5674 40.6334 17.9032 41.7837 18.2031 42.9028C18.503 44.0219 19.6533 44.686 20.7724 44.3862Z" fill="black"/>
        <path d="M27.8642 42.4858C28.9833 42.186 29.6474 41.0356 29.3476 39.9165C29.0477 38.7974 27.8974 38.1333 26.7783 38.4332C25.6592 38.733 24.995 39.8833 25.2949 41.0024C25.5948 42.1216 26.7451 42.7857 27.8642 42.4858Z" fill="black"/>
        <path d="M34.957 40.5855C36.0761 40.2856 36.7402 39.1353 36.4404 38.0162C36.1405 36.8971 34.9902 36.2329 33.8711 36.5328C32.7519 36.8327 32.0878 37.983 32.3877 39.1021C32.6875 40.2212 33.8379 40.8853 34.957 40.5855Z" fill="black"/>
        <path d="M22.1678 54.2012C21.8382 57.4923 19.9449 62.0735 17.5532 64.795C23.6322 63.1661 27.4565 60.2389 29.4743 54.9871" stroke="black" stroke-width="2" stroke-miterlimit="10" stroke-linecap="round" stroke-linejoin="round"/>
        <path d="M33.3766 53.8399C39.8191 50.9337 43.3941 43.7078 41.5053 36.6588C39.4062 28.825 31.3541 24.1761 23.5203 26.2751C15.6865 28.3742 11.0376 36.4264 13.1366 44.2602C14.0416 47.6378 16.0533 50.4232 18.6769 52.3311" stroke="black" stroke-width="2" stroke-miterlimit="10" stroke-linecap="round"/>
        <path d="M71.5263 47.3794C72.6454 47.0795 73.3096 45.9292 73.0097 44.8101C72.7098 43.691 71.5595 43.0269 70.4404 43.3267C69.3213 43.6266 68.6572 44.7769 68.957 45.896C69.2569 47.0151 70.4072 47.6793 71.5263 47.3794Z" fill="black"/>
        <path d="M64.4335 49.2797C65.5527 48.9799 66.2168 47.8296 65.9169 46.7104C65.6171 45.5913 64.4667 44.9272 63.3476 45.2271C62.2285 45.5269 61.5644 46.6772 61.8642 47.7964C62.1641 48.9155 63.3144 49.5796 64.4335 49.2797Z" fill="black"/>
        <path d="M57.3417 51.1801C58.4609 50.8802 59.125 49.7299 58.8251 48.6108C58.5253 47.4917 57.3749 46.8275 56.2558 47.1274C55.1367 47.4273 54.4726 48.5776 54.7724 49.6967C55.0723 50.8158 56.2226 51.48 57.3417 51.1801Z" fill="black"/>
        <path d="M75.225 56.5774C77.156 59.2628 81.0863 62.2836 84.5183 63.4446C78.4393 65.0735 73.6637 64.4506 69.2904 60.9113" stroke="black" stroke-width="2" stroke-miterlimit="10" stroke-linecap="round" stroke-linejoin="round"/>
        <path d="M65.3372 61.869C58.3046 62.5734 51.5957 58.1031 49.7069 51.0541C47.6079 43.2203 52.2568 35.1681 60.0906 33.0691C67.9244 30.97 75.9766 35.6189 78.0756 43.4527C78.9806 46.8303 78.6312 50.2485 77.313 53.2125" stroke="black" stroke-width="2" stroke-miterlimit="10" stroke-linecap="round"/>
        </g>
        <defs>
        <clipPath id="clip0_1_6132">
        <rect width="75.5214" height="75.5214" fill="white" transform="translate(0 19.5467) rotate(-15)"/>
        </clipPath>
        </defs>
        </symbol>
        <symbol id="pc1" viewBox="0 0 178 103">
        <path fill-rule="evenodd" clip-rule="evenodd" d="M90.3349 44.4281L70.3572 77.2537C63.8682 87.9161 71.5433 101.572 84.025 101.572L99.729 101.572C99.7323 101.572 99.7357 101.572 99.739 101.572C112.696 101.564 120.272 86.9604 112.813 76.3625L90.3349 44.4281Z" fill="white"/>
        <path d="M84.4678 101.428L149.464 101.428C161.96 101.428 169.633 87.7436 163.115 77.082L130.542 23.8064C124.295 13.589 109.449 13.6041 103.223 23.8343L70.8 77.1099C64.3109 87.7723 71.986 101.428 84.4678 101.428Z" stroke="black" stroke-width="3"/>
        <path d="M55.4075 101.428L127.172 101.428C140.135 101.428 147.717 86.8193 140.256 76.2187L101.696 21.4368C95.0537 12.0005 80.9104 12.4845 74.9291 22.3528L41.7247 77.1347C35.2617 87.7977 42.9387 101.428 55.4075 101.428Z" stroke="black" stroke-width="3"/>
        <path d="M28.4075 100.428L100.172 100.428C113.135 100.428 120.717 85.8193 113.256 75.2187L74.6957 20.4368C68.0537 11.0005 53.9104 11.4845 47.9291 21.3528L14.7247 76.1347C8.26165 86.7977 15.9387 100.428 28.4075 100.428Z" stroke="black" stroke-width="3"/>
        </symbol>
        <symbol id="pc2" viewBox="0 0 144 120">
        <circle cx="60" cy="60" r="60" fill="#2E2E2E"/>
        <circle cx="84" cy="60" r="58.5" fill="white" stroke="#2E2E2E" stroke-width="3"/>
        <path d="M85.5 2V117.5" stroke="#2E2E2E" stroke-width="3"/>
        <path d="M85 21H128" stroke="#2E2E2E" stroke-width="2"/>
        <path d="M85 29H134" stroke="#2E2E2E" stroke-width="2"/>
        <path d="M93 38H139" stroke="#2E2E2E" stroke-width="2"/>
        <path d="M85 13H118" stroke="#2E2E2E" stroke-width="2"/>
        <path d="M86 38H108.923C115.528 38 117.498 46.986 111.5 49.75V49.75C105.502 52.514 107.472 61.5 114.077 61.5H142" stroke="#2E2E2E" stroke-width="2"/>
        <path d="M85 80H140" stroke="#2E2E2E" stroke-width="2"/>
        <path d="M87 98H129" stroke="#2E2E2E" stroke-width="2"/>
        <path d="M87 89H134" stroke="#2E2E2E" stroke-width="2"/>
        <path d="M87 71H141" stroke="#2E2E2E" stroke-width="2"/>
        <path d="M87 108H118" stroke="#2E2E2E" stroke-width="2"/>
        <path d="M68.904 92.0712C69.044 91.4738 69.3333 91.0025 69.772 90.6572C70.2107 90.3025 70.7193 90.1252 71.298 90.1252C72.1473 90.1252 72.81 90.4098 73.286 90.9792C73.762 91.5392 74 92.3465 74 93.4012L74 98.0072L64.102 98.0072L64.102 93.5132C64.102 92.5052 64.3213 91.7258 64.76 91.1752C65.1987 90.6245 65.824 90.3492 66.636 90.3492C67.2333 90.3492 67.7327 90.5078 68.134 90.8252C68.526 91.1425 68.7827 91.5578 68.904 92.0712ZM68.148 95.6132L68.148 94.0452C68.148 93.2145 67.7933 92.7992 67.084 92.7992C66.3747 92.7992 66.02 93.2238 66.02 94.0732L66.02 95.6132L68.148 95.6132ZM72.054 93.9052C72.054 93.0185 71.69 92.5752 70.962 92.5752C70.6073 92.5752 70.332 92.6918 70.136 92.9252C69.9307 93.1585 69.828 93.4898 69.828 93.9192L69.828 95.6132L72.054 95.6132L72.054 93.9052ZM74 76.3587L70.262 78.5007L70.262 79.0467L74 79.0467L74 81.4407L64.102 81.4407L64.102 77.3527C64.102 76.5687 64.2373 75.906 64.508 75.3647C64.7787 74.8233 65.152 74.4173 65.628 74.1467C66.0947 73.876 66.6313 73.7407 67.238 73.7407C67.9567 73.7407 68.568 73.9413 69.072 74.3427C69.576 74.7347 69.9213 75.3087 70.108 76.0647L74 73.7127L74 76.3587ZM68.624 79.0467L68.624 77.5627C68.624 77.0867 68.5213 76.7367 68.316 76.5127C68.1013 76.2887 67.7887 76.1767 67.378 76.1767C66.986 76.1767 66.678 76.2933 66.454 76.5267C66.23 76.7507 66.118 77.096 66.118 77.5627L66.118 79.0467L68.624 79.0467ZM72.194 58.9883L72.194 62.6983L74 63.3143L74 65.8343L64.172 62.2083L64.172 59.4503L74 55.8243L74 58.3723L72.194 58.9883ZM70.374 59.6043L66.734 60.8363L70.374 62.0823L70.374 59.6043ZM74 38.6817L74 41.0757L67.924 45.0797L74 45.0797L74 47.4737L64.102 47.4737L64.102 45.0797L70.234 41.0757L64.102 41.0757L64.102 38.6817L74 38.6817ZM69.03 20.7044C70.0007 20.7044 70.864 20.9144 71.62 21.3344C72.3667 21.7451 72.95 22.3424 73.37 23.1264C73.79 23.9011 74 24.8158 74 25.8704L74 29.6084L64.102 29.6084L64.102 25.8704C64.102 24.8064 64.3073 23.8871 64.718 23.1124C65.1287 22.3378 65.7073 21.7451 66.454 21.3344C67.2007 20.9144 68.0593 20.7044 69.03 20.7044ZM71.858 26.0804C71.858 25.1471 71.6107 24.4238 71.116 23.9104C70.6213 23.3878 69.926 23.1264 69.03 23.1264C68.134 23.1264 67.4387 23.3878 66.944 23.9104C66.4493 24.4238 66.202 25.1471 66.202 26.0804L66.202 27.2144L71.858 27.2144L71.858 26.0804Z" fill="#2E2E2E"/>
        <path d="M55 74.1399L55 76.5339L48.924 80.5379L55 80.5379L55 82.9319L45.102 82.9319L45.102 80.5379L51.234 76.5339L45.102 76.5339L45.102 74.1399L55 74.1399ZM47.006 62.6726L49.078 62.6726L49.078 59.3266L50.884 59.3266L50.884 62.6726L53.082 62.6726L53.082 58.9066L55 58.9066L55 65.0666L45.102 65.0666L45.102 58.9066L47.006 58.9066L47.006 62.6726ZM45.102 36.673L55 39.039L55 42.007L48.378 43.589L55 45.185L55 48.153L45.102 50.519L45.102 47.915L52.27 46.641L45.102 44.905L45.102 42.287L52.27 40.551L45.102 39.263L45.102 36.673Z" fill="#2E2E2E"/>
        </symbol>
        <symbol id="pc3" viewBox="0 0 106 106">
        <rect y="0.413055" width="106" height="102" fill="#2E2E2E"/>
        <rect x="54" y="13.4131" width="39" height="38" fill="white"/>
        <rect x="73" y="20.4131" width="12.3158" height="12" rx="6" fill="#2E2E2E"/>
        <path d="M14.0931 77.7235C14.2167 79.9015 14.697 81.6706 15.534 83.0306C16.3804 84.3812 17.6739 85.0564 19.4144 85.0564C20.0992 85.0564 20.7126 84.9375 21.2548 84.6998C21.8064 84.4525 22.2391 84.0816 22.553 83.587C22.8764 83.0924 23.038 82.4932 23.038 81.7894C23.038 81.0286 22.8573 80.3485 22.4959 79.7494C22.144 79.1407 21.6637 78.589 21.055 78.0945C20.4558 77.5904 19.6522 77.0102 18.644 76.354C17.4647 75.5931 16.5279 74.9321 15.8336 74.371C15.1488 73.8098 14.5781 73.1441 14.1216 72.3737C13.6746 71.6033 13.4511 70.7093 13.4511 69.6916C13.4511 68.5123 13.7507 67.5231 14.3499 66.7242C14.949 65.9158 15.7432 65.3166 16.7323 64.9267C17.7215 64.5367 18.8105 64.3418 19.9993 64.3418C20.7031 64.3418 21.3118 64.3941 21.8254 64.4987C22.3485 64.6033 22.7813 64.7365 23.1236 64.8981C23.4755 65.0503 23.856 65.2453 24.2649 65.4831C24.731 65.7589 25.0591 65.8968 25.2493 65.8968C25.43 65.8968 25.5679 65.7969 25.663 65.5972C25.7582 65.3879 25.8342 65.0598 25.8913 64.6128H26.5618C26.4667 65.9158 26.4192 68.1366 26.4192 71.2752H25.7486C25.6821 70.2195 25.4443 69.2161 25.0353 68.265C24.6359 67.3139 24.07 66.5435 23.3376 65.9538C22.6148 65.3547 21.7636 65.0551 20.784 65.0551C20.1658 65.0551 19.6094 65.174 19.1148 65.4117C18.6298 65.6495 18.2493 65.9966 17.9735 66.4532C17.7072 66.9002 17.574 67.4233 17.574 68.0225C17.574 68.9926 17.8641 69.7867 18.4443 70.4049C19.0245 71.0231 19.7806 71.6509 20.7126 72.2881C21.6447 72.9158 22.2724 73.339 22.5958 73.5578C23.7371 74.3187 24.6406 74.9797 25.3064 75.5408C25.9721 76.1019 26.5143 76.7582 26.9327 77.5096C27.3512 78.2609 27.5605 79.1312 27.5605 80.1203C27.5605 81.3662 27.2371 82.4172 26.5904 83.2731C25.9436 84.1291 25.0734 84.7711 23.9796 85.1991C22.8859 85.6176 21.6637 85.8268 20.3132 85.8268C19.2194 85.8268 18.3111 85.7269 17.5883 85.5272C16.875 85.337 16.214 85.0755 15.6053 84.7426C15.1868 84.4668 14.8587 84.3288 14.6209 84.3288C14.4402 84.3288 14.3023 84.4335 14.2072 84.6427C14.1121 84.8424 14.036 85.1658 13.9789 85.6128H13.3084C13.3845 84.3954 13.4226 81.7657 13.4226 77.7235H14.0931ZM29.6005 71.9172C29.6671 71.2704 29.7004 70.5286 29.7004 69.6916C29.7004 68.3601 29.6291 66.7052 29.4864 64.7269C31.2649 64.784 34.2751 64.8125 38.517 64.8125C42.7588 64.8125 45.7595 64.784 47.519 64.7269C47.3764 66.7052 47.305 68.3601 47.305 69.6916C47.305 70.5286 47.3383 71.2704 47.4049 71.9172H46.7344C46.411 70.2908 46.0163 69.0068 45.5503 68.0653C45.0842 67.1142 44.5231 66.4341 43.8668 66.0252C43.2201 65.6067 42.4307 65.3975 41.4986 65.3975H40.8281V82.089C40.8281 82.8975 40.909 83.4871 41.0707 83.8581C41.2418 84.229 41.5367 84.481 41.9552 84.6142C42.3832 84.7473 43.0489 84.8187 43.9524 84.8282V85.4131C41.4986 85.356 39.6488 85.3275 38.4029 85.3275C37.176 85.3275 35.3927 85.356 33.053 85.4131V84.8282C33.966 84.8187 34.6318 84.7473 35.0503 84.6142C35.4783 84.481 35.7731 84.229 35.9348 83.8581C36.0965 83.4871 36.1773 82.8975 36.1773 82.089V65.3975H35.5353C34.5938 65.3975 33.7948 65.6019 33.1386 66.0109C32.4918 66.4199 31.9355 67.0999 31.4694 68.051C31.0034 68.9926 30.6039 70.2813 30.2711 71.9172H29.6005Z" fill="white"/>
        <symbol id="pc4" viewBox="0 0 153 92">
        <circle cx="46" cy="46" r="45" stroke="black" stroke-width="2"/>
        <circle cx="75" cy="46" r="45" stroke="black" stroke-width="2"/>
        <circle cx="107" cy="46" r="45" stroke="black" stroke-width="2"/>
        <path d="M13.6602 51H10.2183V38.2529H18.8462C19.7739 38.2529 20.5594 38.3488 21.2026 38.5405C21.8521 38.7323 22.3778 39.0044 22.7798 39.3569C23.188 39.7095 23.4818 40.1362 23.6611 40.6372C23.8467 41.132 23.9395 41.6855 23.9395 42.2979C23.9395 42.8359 23.8621 43.306 23.7075 43.708C23.5591 44.11 23.355 44.4564 23.0952 44.7471C22.8416 45.0316 22.5448 45.2728 22.2046 45.4707C21.8644 45.6686 21.5057 45.8325 21.1284 45.9624L25.3032 51H21.2769L17.4175 46.3057H13.6602V51ZM20.4604 42.2793C20.4604 42.0319 20.4264 41.8216 20.3584 41.6484C20.2965 41.4753 20.1852 41.3361 20.0244 41.231C19.8636 41.1196 19.6471 41.0392 19.375 40.9897C19.109 40.9403 18.7751 40.9155 18.373 40.9155H13.6602V43.6431H18.373C18.7751 43.6431 19.109 43.6183 19.375 43.5688C19.6471 43.5194 19.8636 43.4421 20.0244 43.3369C20.1852 43.2256 20.2965 43.0833 20.3584 42.9102C20.4264 42.737 20.4604 42.5267 20.4604 42.2793Z" fill="#2E2E2E"/>
        <path d="M41.312 51V38.2529H54.2168V40.9712H44.8467V43.0771H53.7344V45.7954H44.8467V48.2817H54.3467V51H41.312Z" fill="#2E2E2E"/>
        <path d="M78.2163 41.0269V51H74.7744V41.0269H69.3657V38.2529H83.6343V41.0269H78.2163Z" fill="#2E2E2E"/>
        <path d="M102.66 51H99.2183V38.2529H107.846C108.774 38.2529 109.559 38.3488 110.203 38.5405C110.852 38.7323 111.378 39.0044 111.78 39.3569C112.188 39.7095 112.482 40.1362 112.661 40.6372C112.847 41.132 112.939 41.6855 112.939 42.2979C112.939 42.8359 112.862 43.306 112.708 43.708C112.559 44.11 112.355 44.4564 112.095 44.7471C111.842 45.0316 111.545 45.2728 111.205 45.4707C110.864 45.6686 110.506 45.8325 110.128 45.9624L114.303 51H110.277L106.417 46.3057H102.66V51ZM109.46 42.2793C109.46 42.0319 109.426 41.8216 109.358 41.6484C109.297 41.4753 109.185 41.3361 109.024 41.231C108.864 41.1196 108.647 41.0392 108.375 40.9897C108.109 40.9403 107.775 40.9155 107.373 40.9155H102.66V43.6431H107.373C107.775 43.6431 108.109 43.6183 108.375 43.5688C108.647 43.5194 108.864 43.4421 109.024 43.3369C109.185 43.2256 109.297 43.0833 109.358 42.9102C109.426 42.737 109.46 42.5267 109.46 42.2793Z" fill="#2E2E2E"/>
        <path d="M145.674 44.6357C145.674 45.7305 145.473 46.6984 145.071 47.5396C144.669 48.3745 144.094 49.0734 143.346 49.6362C142.597 50.1991 141.688 50.6258 140.618 50.9165C139.554 51.201 138.358 51.3433 137.028 51.3433C135.698 51.3433 134.495 51.201 133.419 50.9165C132.349 50.6258 131.437 50.1991 130.682 49.6362C129.928 49.0734 129.346 48.3745 128.938 47.5396C128.53 46.6984 128.326 45.7305 128.326 44.6357C128.326 43.541 128.53 42.5762 128.938 41.7412C129.346 40.9001 129.928 40.1981 130.682 39.6353C131.437 39.0724 132.349 38.6488 133.419 38.3643C134.495 38.0736 135.698 37.9282 137.028 37.9282C138.358 37.9282 139.554 38.0736 140.618 38.3643C141.688 38.6488 142.597 39.0724 143.346 39.6353C144.094 40.1981 144.669 40.9001 145.071 41.7412C145.473 42.5762 145.674 43.541 145.674 44.6357ZM142.195 44.6357C142.195 44.1595 142.118 43.6864 141.963 43.2163C141.815 42.7401 141.546 42.3133 141.156 41.936C140.773 41.5588 140.247 41.2526 139.579 41.0176C138.911 40.7826 138.061 40.665 137.028 40.665C136.335 40.665 135.726 40.7207 135.2 40.832C134.674 40.9372 134.22 41.0856 133.836 41.2773C133.453 41.4691 133.131 41.6948 132.872 41.9546C132.612 42.2082 132.405 42.4834 132.25 42.7803C132.095 43.071 131.984 43.3771 131.916 43.6987C131.854 44.0142 131.823 44.3265 131.823 44.6357C131.823 44.9512 131.854 45.2697 131.916 45.5913C131.984 45.9129 132.095 46.2222 132.25 46.519C132.405 46.8097 132.612 47.0819 132.872 47.3354C133.131 47.589 133.453 47.8117 133.836 48.0034C134.22 48.189 134.674 48.3374 135.2 48.4487C135.726 48.5539 136.335 48.6064 137.028 48.6064C138.061 48.6064 138.911 48.4889 139.579 48.2539C140.247 48.0189 140.773 47.7127 141.156 47.3354C141.546 46.9582 141.815 46.5345 141.963 46.0645C142.118 45.5882 142.195 45.112 142.195 44.6357Z" fill="#2E2E2E"/>
        </symbol>
        <symbol id="pc5" viewBox="0 0 93 130">
        <path d="M1.5 47.487C1.5 22.6342 21.6472 2.487 46.5 2.487C71.3528 2.487 91.5 22.6342 91.5 47.487V127.513H1.5V47.487Z" stroke="#2E2E2E" stroke-width="3"/>
        <path d="M13.5781 49.7727C13.5781 31.5904 28.3178 16.8506 46.5002 16.8506C64.6826 16.8506 79.4223 31.5903 79.4223 49.7727V111.682H13.5781V49.7727Z" fill="#2E2E2E" stroke="#2E2E2E" stroke-width="3"/>
        <circle cx="55.5582" cy="44.3377" r="13.2857" fill="#C4C4C4"/>
        <mask id="mask0_1_6484" style="mask-type:alpha" maskUnits="userSpaceOnUse" x="12" y="15" width="69" height="100">
        <path d="M13.0781 49.7727C13.0781 31.3142 28.0417 16.3506 46.5002 16.3506C64.9587 16.3506 79.9223 31.3142 79.9223 49.7727V113.987H13.0781V49.7727Z" fill="#2E2E2E" stroke="#2E2E2E" stroke-width="2"/>
        </mask>
        <g mask="url(#mask0_1_6484)">
        <ellipse cx="25.3641" cy="108.837" rx="22.9481" ry="23.3715" fill="white"/>
        <ellipse cx="65.2213" cy="111.297" rx="35.026" ry="35.6723" fill="white"/>
        </g>
        <path d="M12.7588 50.8016C12.7588 32.0291 27.8717 16.8226 46.5002 16.8226C65.1286 16.8226 80.2415 32.0291 80.2415 50.8016V114.236H12.7588V50.8016Z" stroke="#2E2E2E" stroke-width="2"/>
        </symbol>
        <symbol id="pc6" viewBox="0 0 158 158">
        <path d="M79 0L81.0949 61.7467L97.9059 2.29559L85.163 62.7494L115.713 9.04897L88.873 64.6965L131.387 19.8676L92.0091 67.4749L144.016 34.1229L94.3892 70.9231L152.866 50.9862L95.875 74.8407L157.424 69.4776L96.38 79L157.424 88.5224L95.875 83.1593L152.866 107.014L94.3892 87.0769L144.016 123.877L92.0091 90.5251L131.387 138.132L88.873 93.3035L115.713 148.951L85.163 95.2506L97.9059 155.704L81.0949 96.2533L79 158L76.9051 96.2533L60.0941 155.704L72.837 95.2506L42.2869 148.951L69.127 93.3035L26.6133 138.132L65.9909 90.5251L13.9843 123.877L63.6108 87.0769L5.13372 107.014L62.125 83.1593L0.575996 88.5224L61.62 79L0.575996 69.4776L62.125 74.8407L5.13372 50.9862L63.6108 70.9231L13.9843 34.1229L65.9909 67.4749L26.6133 19.8676L69.127 64.6965L42.2869 9.04897L72.837 62.7494L60.0941 2.29559L76.9051 61.7467L79 0Z" fill="#2E2E2E"/>
        </symbol>
	</defs>
</svg>


