<svg width="190" height="190" viewBox="0 0 190 190" fill="none" xmlns="http://www.w3.org/2000/svg">
<g clip-path="url(#clip0_1_5849)">
<path d="M112.416 37.162L42.6416 65.9573L78.352 152.488L148.126 123.693L112.416 37.162Z" fill="white"/>
<path d="M105.123 99.7033L116.821 71.5658L135.196 79.2051L123.598 107.104" fill="#F4AA41"/>
<path d="M106.415 112.784L105.761 101.396L121.841 108.081L113.306 115.649" fill="#A57939"/>
<path d="M119.967 62.2667L124.088 52.3546L143.666 60.4939L139.58 70.322" fill="#EA5A47"/>
<path d="M116.064 73.3869L120.837 61.9081L139.212 69.5473L134.48 80.9288" fill="#D0CFCE"/>
<path d="M106.914 113.347L112.859 115.819L107.681 120.597L106.914 113.347Z" fill="#2E2E2E"/>
<path d="M59.2588 76.6362L106.875 56.9855" stroke="#2E2E2E" stroke-width="3" stroke-miterlimit="10" stroke-linecap="round" stroke-linejoin="round"/>
<path d="M65.082 90.7446L110.229 72.1128" stroke="#2E2E2E" stroke-width="3" stroke-miterlimit="10" stroke-linecap="round" stroke-linejoin="round"/>
<path d="M70.9043 104.853L101.078 92.4005" stroke="#2E2E2E" stroke-width="3" stroke-miterlimit="10" stroke-linecap="round" stroke-linejoin="round"/>
<path d="M76.7266 118.961L98.2541 110.077" stroke="#2E2E2E" stroke-width="3" stroke-miterlimit="10" stroke-linecap="round" stroke-linejoin="round"/>
<path d="M82.5488 133.07L100.442 125.686" stroke="#2E2E2E" stroke-width="3" stroke-miterlimit="10" stroke-linecap="round" stroke-linejoin="round"/>
<path d="M106.914 113.347L112.859 115.819L107.681 120.597L106.914 113.347Z" fill="#2E2E2E"/>
<path d="M113.284 115.672L121.842 108.08L137.989 69.2402L121.909 62.5554L105.762 101.396L106.409 112.834L113.284 115.672Z" stroke="#2E2E2E" stroke-width="3" stroke-miterlimit="10" stroke-linecap="round" stroke-linejoin="round"/>
<path d="M124.596 56.0939L126.207 52.2187L142.287 58.9036L140.596 62.969" stroke="#2E2E2E" stroke-width="3" stroke-miterlimit="10" stroke-linecap="round" stroke-linejoin="round"/>
<path d="M106.152 100.457L122.232 107.142" stroke="#2E2E2E" stroke-width="3" stroke-miterlimit="10" stroke-linecap="round" stroke-linejoin="round"/>
<path d="M106.406 112.807L106.987 121.131L113.306 115.649" stroke="#2E2E2E" stroke-width="3" stroke-miterlimit="10" stroke-linecap="round" stroke-linejoin="round"/>
<path d="M117.852 73.677L133.303 80.1006" stroke="#2E2E2E" stroke-width="3" stroke-miterlimit="10" stroke-linecap="round" stroke-linejoin="round"/>
<path d="M135.181 95.5665L146.569 123.161L77.7901 151.545L42.8555 66.8945L111.634 38.5102L117.788 53.4226" stroke="#2E2E2E" stroke-width="3" stroke-miterlimit="10" stroke-linecap="round" stroke-linejoin="round"/>
</g>
<defs>
<clipPath id="clip0_1_5849">
<rect width="137.364" height="137.364" fill="white" transform="translate(5.42871 57.8311) rotate(-22.4255)"/>
</clipPath>
</defs>
</svg>
